<svg width="218" height="246" viewBox="0 0 218 246" fill="none" xmlns="http://www.w3.org/2000/svg">
<path d="M8.86163 35.531H0.275391L14.0506 0.628906H22.6601L36.4121 35.531H27.8257L25.2664 28.6671H11.4212L8.86163 35.531ZM14.0506 21.5235H22.6601L18.3553 10.0757L14.0506 21.5235ZM46.0927 35.531H38.4606V12.2629H45.092L45.348 16.102C46.1239 14.7372 47.1552 13.6821 48.4431 12.938C49.7304 12.1774 51.204 11.7974 52.864 11.7974C53.376 11.7974 53.8959 11.8365 54.4231 11.9141C54.9663 11.9916 55.5088 12.1077 56.052 12.2629L55.1215 19.1268C54.0352 18.7859 53.0192 18.6154 52.0728 18.6154C50.8631 18.6154 49.808 18.8787 48.9086 19.406C48.0087 19.9338 47.3104 20.6706 46.8143 21.6169C46.3334 22.5627 46.0927 23.6801 46.0927 24.9673V35.531ZM79.6246 32.995C76.7238 34.9958 73.5669 35.9965 70.1541 35.9965C67.5789 35.9965 65.2597 35.4534 63.1965 34.3678C61.1486 33.2663 59.5277 31.7768 58.3333 29.9C57.1389 28.0079 56.5414 25.8825 56.5414 23.5249C56.5414 21.2754 57.0765 19.2746 58.1469 17.5212C59.2173 15.7532 60.6757 14.3572 62.5214 13.3333C64.383 12.3093 66.4853 11.7974 68.8277 11.7974C71.263 11.7974 73.4038 12.3637 75.2495 13.4964C77.0958 14.6284 78.531 16.2028 79.5543 18.2195C80.5936 20.2203 81.1135 22.5474 81.1135 25.2001V25.9448H64.7325C65.0117 26.7048 65.4302 27.3793 65.9886 27.9688C66.5629 28.5584 67.2765 29.0313 68.1294 29.388C68.9829 29.7296 69.9598 29.9 71.0614 29.9C73.3415 29.9 75.4823 29.1632 77.4838 27.6896L79.6246 32.995ZM64.4062 22.501H74.0863C73.9934 21.6322 73.7295 20.8643 73.2951 20.1971C72.8607 19.5306 72.287 19.0107 71.5734 18.6386C70.8751 18.2659 70.0918 18.0802 69.223 18.0802C68.339 18.0802 67.5557 18.2818 66.8727 18.6851C66.2061 19.073 65.655 19.6002 65.2206 20.2674C64.8021 20.9186 64.5303 21.6634 64.4062 22.501ZM107.06 47.165H98.9627L103.779 35.5542L91.8193 12.2629H100.475L107.386 26.8753L113.436 12.2629H121.533L107.06 47.165ZM134.239 35.9965C131.804 35.9965 129.632 35.4766 127.724 34.4374C125.831 33.3823 124.343 31.9479 123.256 30.1328C122.171 28.3024 121.627 26.224 121.627 23.8969C121.627 21.5699 122.171 19.4994 123.256 17.6843C124.343 15.854 125.831 14.4189 127.724 13.3797C129.632 12.3252 131.804 11.7974 134.239 11.7974C136.644 11.7974 138.784 12.3252 140.662 13.3797C142.554 14.4189 144.036 15.854 145.106 17.6843C146.192 19.4994 146.735 21.5699 146.735 23.8969C146.735 26.224 146.192 28.3024 145.106 30.1328C144.036 31.9479 142.554 33.3823 140.662 34.4374C138.784 35.4766 136.644 35.9965 134.239 35.9965ZM134.193 29.1553C135.092 29.1553 135.899 28.9305 136.613 28.4808C137.327 28.0312 137.885 27.4025 138.288 26.5961C138.707 25.7896 138.916 24.8744 138.916 23.8505C138.916 22.8577 138.707 21.9658 138.288 21.1746C137.885 20.3835 137.327 19.7627 136.613 19.3131C135.899 18.8634 135.092 18.6386 134.193 18.6386C133.278 18.6386 132.463 18.8634 131.75 19.3131C131.036 19.7627 130.47 20.3835 130.051 21.1746C129.647 21.9658 129.446 22.8577 129.446 23.8505C129.446 24.8744 129.647 25.7896 130.051 26.5961C130.47 27.4025 131.036 28.0312 131.75 28.4808C132.463 28.9305 133.278 29.1553 134.193 29.1553ZM172.89 35.531H166.794L166.538 31.808C165.731 33.1734 164.653 34.2126 163.303 34.9262C161.954 35.6397 160.379 35.9965 158.579 35.9965C155.647 35.9965 153.352 35.0887 151.692 33.2742C150.032 31.4591 149.202 28.9537 149.202 25.7585V12.2629H156.835V23.8273C156.835 25.5178 157.199 26.8288 157.928 27.7593C158.657 28.6903 159.666 29.1553 160.953 29.1553C162.303 29.1553 163.358 28.6745 164.118 27.7129C164.878 26.7512 165.258 25.4249 165.258 23.7338V12.2629H172.89V35.531ZM10.0948 101.512H2.46262V78.244H9.09428L9.35027 82.0831C10.1259 80.7183 11.1575 79.6632 12.445 78.919C13.7326 78.1584 15.2062 77.7784 16.8661 77.7784C17.378 77.7784 17.8977 77.8175 18.4251 77.8951C18.9681 77.9727 19.511 78.0888 20.054 78.244L19.1232 85.1078C18.0373 84.7669 17.0212 84.5965 16.075 84.5965C14.865 84.5965 13.8101 84.8598 12.9104 85.387C12.0107 85.9149 11.3126 86.6517 10.8162 87.598C10.3353 88.5437 10.0948 89.6611 10.0948 90.9484V101.512ZM43.6263 98.9761C40.7255 100.977 37.5686 101.978 34.1558 101.978C31.5806 101.978 29.2614 101.434 27.1982 100.349C25.1509 99.2473 23.53 97.7579 22.3353 95.8811C21.1408 93.989 20.5435 91.8636 20.5435 89.506C20.5435 87.2565 21.0787 85.2557 22.1491 83.5023C23.2196 81.7342 24.6774 80.3382 26.5237 79.3143C28.3853 78.2904 30.487 77.7784 32.8294 77.7784C35.2653 77.7784 37.4055 78.3448 39.2518 79.4774C41.0975 80.6095 42.5327 82.1839 43.5566 84.2006C44.5959 86.2014 45.1158 88.5285 45.1158 91.1811V91.9259H28.7342C29.0134 92.6859 29.4325 93.3603 29.9909 93.9499C30.5646 94.5394 31.2782 95.0123 32.1317 95.3691C32.9846 95.7106 33.9621 95.8811 35.0631 95.8811C37.3438 95.8811 39.4846 95.1443 41.4855 93.6707L43.6263 98.9761ZM28.4085 88.482H38.0886C37.9951 87.6133 37.7318 86.8453 37.2974 86.1782C36.863 85.5117 36.2887 84.9918 35.5751 84.6197C34.8774 84.247 34.0941 84.0613 33.2253 84.0613C32.3407 84.0613 31.5574 84.2629 30.875 84.6661C30.2078 85.0541 29.6573 85.5813 29.2229 86.2484C28.8038 86.8997 28.5325 87.6444 28.4085 88.482ZM69.4558 101.512H62.7774L62.3821 98.8594C61.5286 99.8521 60.4894 100.62 59.2638 101.163C58.0382 101.706 56.6892 101.978 55.215 101.978C53.602 101.978 52.1669 101.667 50.9108 101.047C49.654 100.426 48.6612 99.5729 47.9323 98.4873C47.2187 97.3858 46.8619 96.137 46.8619 94.7411C46.8619 93.2675 47.2493 91.9723 48.0252 90.8555C48.8164 89.7387 49.9021 88.862 51.2828 88.226C52.6636 87.5901 54.238 87.2718 56.0061 87.2718C57.0148 87.2718 58.0076 87.3805 58.9846 87.598C59.9774 87.8149 60.9238 88.1173 61.8237 88.5052V88.0165C61.8237 87.1942 61.5757 86.4806 61.0789 85.8758C60.5828 85.271 59.9077 84.7981 59.0548 84.4566C58.2013 84.0998 57.2317 83.9214 56.1461 83.9214C55.0757 83.9214 54.0364 84.0918 53.0277 84.4333C52.0196 84.759 51.0965 85.2325 50.2589 85.8525L48.258 80.1519C49.9021 79.3607 51.5388 78.7712 53.1676 78.3839C54.8117 77.98 56.3941 77.7784 57.9142 77.7784C60.2566 77.7784 62.2893 78.236 64.0109 79.1512C65.7485 80.0664 67.0902 81.3622 68.0365 83.0374C68.9829 84.6973 69.4558 86.6669 69.4558 88.9476V101.512ZM56.9372 96.277C57.7284 96.277 58.4885 96.1059 59.2173 95.765C59.9621 95.4082 60.567 94.9427 61.0325 94.369C61.5133 93.7947 61.7614 93.1819 61.7773 92.5307V92.4372C61.1565 92.034 60.4661 91.7316 59.7061 91.53C58.9461 91.3131 58.1861 91.2044 57.426 91.2044C56.2933 91.2044 55.386 91.4371 54.7036 91.9027C54.0205 92.3523 53.6796 92.9571 53.6796 93.7171C53.6796 94.1979 53.8189 94.6403 54.0981 95.0435C54.3773 95.4314 54.7653 95.7338 55.262 95.9507C55.7581 96.1682 56.3165 96.277 56.9372 96.277ZM97.6125 101.512H90.9108L90.5149 98.4177C89.5686 99.5186 88.4212 100.387 87.0716 101.023C85.722 101.659 84.2636 101.978 82.6965 101.978C80.618 101.978 78.7644 101.458 77.1356 100.418C75.522 99.3634 74.25 97.9289 73.3195 96.1138C72.3884 94.2835 71.9235 92.2051 71.9235 89.878C71.9235 87.551 72.3884 85.4805 73.3195 83.6654C74.25 81.835 75.522 80.4 77.1356 79.3608C78.7644 78.3063 80.618 77.7784 82.6965 77.7784C84.1396 77.7784 85.4813 78.0424 86.7221 78.5696C87.9636 79.0816 89.0492 79.8031 89.9797 80.7335V66.6099H97.6125V101.512ZM84.8837 95.1363C85.8148 95.1363 86.6677 94.9347 87.4436 94.5315C88.219 94.113 88.8317 93.5387 89.282 92.8099C89.747 92.0652 89.9797 91.2196 89.9797 90.2733V89.4125C89.9797 88.482 89.747 87.6597 89.282 86.9461C88.8317 86.2173 88.219 85.643 87.4436 85.2245C86.6677 84.8054 85.8148 84.5965 84.8837 84.5965C83.8909 84.5965 83.0069 84.8286 82.2316 85.2942C81.4556 85.7438 80.8428 86.3725 80.3932 87.1789C79.9588 87.9701 79.7419 88.87 79.7419 89.878C79.7419 90.8861 79.9588 91.7939 80.3932 92.6003C80.8428 93.3915 81.4556 94.0122 82.2316 94.4619C83.0069 94.9115 83.8909 95.1363 84.8837 95.1363ZM115.297 113.146H107.2L112.016 101.535L100.056 78.244H108.712L115.624 92.8563L121.673 78.244H129.771L115.297 113.146ZM158.603 100.884C156.741 101.613 154.934 101.978 153.181 101.978C151.335 101.978 149.699 101.59 148.271 100.814C146.86 100.023 145.758 98.937 144.967 97.5563C144.176 96.1603 143.781 94.5395 143.781 92.6932V85.0614H139.709V78.244H144.199V72.4272H151.413V78.244H157.695V85.0614H151.413V91.3204C151.413 92.546 151.754 93.4923 152.437 94.1595C153.119 94.8266 153.941 95.1602 154.903 95.1602C155.834 95.1602 156.741 94.8651 157.626 94.2755L158.603 100.884ZM172.402 101.978C169.966 101.978 167.795 101.458 165.887 100.418C163.994 99.3634 162.505 97.9289 161.419 96.1138C160.334 94.2835 159.79 92.2051 159.79 89.878C159.79 87.551 160.334 85.4805 161.419 83.6654C162.505 81.835 163.994 80.4 165.887 79.3608C167.795 78.3063 169.966 77.7784 172.402 77.7784C174.807 77.7784 176.947 78.3063 178.825 79.3608C180.717 80.4 182.198 81.835 183.269 83.6654C184.355 85.4805 184.898 87.551 184.898 89.878C184.898 92.2051 184.355 94.2835 183.269 96.1138C182.198 97.9289 180.717 99.3634 178.825 100.418C176.947 101.458 174.807 101.978 172.402 101.978ZM172.356 95.1363C173.255 95.1363 174.062 94.9115 174.776 94.4619C175.49 94.0122 176.048 93.3836 176.451 92.5771C176.87 91.7707 177.079 90.8555 177.079 89.8316C177.079 88.8388 176.87 87.9469 176.451 87.1557C176.048 86.3645 175.49 85.7438 174.776 85.2942C174.062 84.8445 173.255 84.6197 172.356 84.6197C171.441 84.6197 170.626 84.8445 169.913 85.2942C169.199 85.7438 168.633 86.3645 168.214 87.1557C167.81 87.9469 167.609 88.8388 167.609 89.8316C167.609 90.8555 167.81 91.7707 168.214 92.5771C168.633 93.3836 169.199 94.0122 169.913 94.4619C170.626 94.9115 171.441 95.1363 172.356 95.1363ZM19.6352 166.865C17.7736 167.594 15.9664 167.959 14.2134 167.959C12.3675 167.959 10.7309 167.571 9.30371 166.795C7.89209 166.004 6.79066 164.918 5.99953 163.537C5.2084 162.141 4.8128 160.521 4.8128 158.674V151.042H0.740758V144.225H5.23168V138.408H12.445V144.225H18.7276V151.042H12.445V157.301C12.445 158.527 12.7863 159.473 13.4689 160.141C14.1514 160.808 14.9736 161.141 15.9354 161.141C16.8661 161.141 17.7736 160.846 18.6579 160.257L19.6352 166.865ZM29.0598 167.493H21.4278V144.225H28.0597L28.3157 148.064C29.091 146.699 30.1229 145.644 31.4102 144.9C32.6975 144.14 34.1717 143.76 35.8311 143.76C36.343 143.76 36.863 143.799 37.3902 143.876C37.9334 143.954 38.4759 144.07 39.019 144.225L38.0886 151.089C37.0023 150.748 35.9862 150.578 35.0399 150.578C33.8302 150.578 32.775 150.841 31.8757 151.368C30.9758 151.896 30.2774 152.633 29.7813 153.579C29.3005 154.525 29.0598 155.642 29.0598 156.929V167.493ZM61.5445 167.493H54.8661L54.4708 164.84C53.6173 165.833 52.5781 166.601 51.3525 167.144C50.1269 167.687 48.7773 167.959 47.3036 167.959C45.6907 167.959 44.2556 167.648 42.9988 167.028C41.7427 166.408 40.7499 165.554 40.0204 164.468C39.3068 163.367 38.95 162.118 38.95 160.722C38.95 159.249 39.338 157.953 40.1139 156.837C40.9051 155.72 41.9908 154.843 43.3715 154.207C44.7517 153.571 46.3267 153.253 48.0948 153.253C49.1035 153.253 50.0963 153.362 51.0733 153.579C52.0661 153.796 53.0124 154.098 53.9124 154.486V153.998C53.9124 153.175 53.6637 152.462 53.1676 151.857C52.6709 151.252 51.9964 150.779 51.1429 150.438C50.29 150.081 49.3204 149.902 48.2347 149.902C47.1643 149.902 46.1251 150.073 45.1164 150.414C44.1083 150.74 43.1852 151.214 42.3475 151.834L40.346 146.133C41.9907 145.342 43.6275 144.752 45.2563 144.365C46.9004 143.961 48.4828 143.76 50.0029 143.76C52.3453 143.76 54.3773 144.217 56.0996 145.132C57.8366 146.047 59.1789 147.343 60.1252 149.018C61.071 150.678 61.5445 152.648 61.5445 154.929V167.493ZM49.0259 162.258C49.8165 162.258 50.5772 162.087 51.306 161.746C52.0508 161.389 52.6556 160.924 53.1212 160.35C53.602 159.776 53.8501 159.163 53.8653 158.512V158.418C53.2452 158.015 52.5548 157.713 51.7948 157.511C51.0348 157.294 50.2741 157.185 49.5141 157.185C48.382 157.185 47.4741 157.418 46.7917 157.884C46.1092 158.333 45.7683 158.938 45.7683 159.698C45.7683 160.179 45.9076 160.621 46.1868 161.025C46.466 161.412 46.854 161.715 47.3501 161.932C47.8468 162.149 48.4052 162.258 49.0259 162.258ZM89.0028 167.493H81.3707V155.929C81.3707 154.238 81.006 152.927 80.2765 151.997C79.5476 151.066 78.5395 150.601 77.2516 150.601C75.9179 150.601 74.8628 151.082 74.0875 152.043C73.3268 153.005 72.9468 154.331 72.9468 156.022V167.493H65.3147V144.225H71.4115L71.6675 147.948C72.4892 146.583 73.5676 145.543 74.9019 144.83C76.2515 144.116 77.8333 143.76 79.6484 143.76C82.5651 143.76 84.8532 144.667 86.5132 146.482C88.1725 148.282 89.0028 150.779 89.0028 153.974V167.493ZM91.121 165.516L92.7266 159.14C93.1763 159.637 93.805 160.109 94.6114 160.559C95.4179 161.009 96.2867 161.373 97.2178 161.653C98.1635 161.917 99.0482 162.048 99.8699 162.048C100.661 162.048 101.274 161.909 101.708 161.629C102.143 161.35 102.36 160.978 102.36 160.513C102.36 160.078 102.189 159.714 101.848 159.419C101.507 159.109 101.057 158.829 100.499 158.581C99.9402 158.333 99.3042 158.085 98.5906 157.837C97.5978 157.465 96.5579 157.022 95.4723 156.51C94.3866 155.983 93.4714 155.277 92.7266 154.393C91.9977 153.494 91.633 152.299 91.633 150.81C91.633 149.367 92.0051 148.119 92.7498 147.064C93.5099 146.009 94.5803 145.195 95.961 144.621C97.3418 144.047 98.9627 143.76 100.824 143.76C103.88 143.76 106.944 144.527 110.016 146.063L107.875 151.974C107.378 151.57 106.742 151.19 105.967 150.833C105.191 150.461 104.392 150.166 103.57 149.949C102.763 149.716 102.05 149.6 101.429 149.6C100.793 149.6 100.304 149.724 99.9634 149.972C99.6219 150.221 99.4514 150.554 99.4514 150.973C99.4514 151.345 99.5987 151.678 99.8932 151.974C100.188 152.253 100.615 152.516 101.173 152.765C101.732 153.013 102.375 153.276 103.104 153.556C104.159 153.928 105.23 154.378 106.316 154.905C107.402 155.433 108.317 156.146 109.061 157.046C109.821 157.945 110.202 159.148 110.202 160.652C110.202 162.126 109.798 163.413 108.992 164.515C108.185 165.6 107.045 166.446 105.571 167.051C104.113 167.656 102.391 167.959 100.405 167.959C97.0858 167.959 93.9907 167.144 91.121 165.516ZM122.349 167.493H114.717V151.042H110.645V144.225H114.717V141.06C114.717 139.292 115.143 137.718 115.996 136.337C116.85 134.957 118.013 133.871 119.487 133.08C120.976 132.289 122.667 131.893 124.559 131.893C125.754 131.893 126.979 132.072 128.236 132.428C129.492 132.769 130.726 133.312 131.936 134.057L129.051 139.967C128.554 139.548 128.027 139.238 127.468 139.036C126.925 138.819 126.382 138.711 125.839 138.711C124.878 138.711 124.055 139.044 123.373 139.711C122.69 140.378 122.349 141.324 122.349 142.55V144.225H129.213V151.042H122.349V167.493ZM144.874 167.959C142.439 167.959 140.267 167.439 138.359 166.4C136.466 165.344 134.977 163.91 133.891 162.095C132.806 160.265 132.262 158.186 132.262 155.859C132.262 153.532 132.806 151.462 133.891 149.646C134.977 147.816 136.466 146.381 138.359 145.342C140.267 144.287 142.439 143.76 144.874 143.76C147.279 143.76 149.419 144.287 151.296 145.342C153.189 146.381 154.671 147.816 155.741 149.646C156.827 151.462 157.37 153.532 157.37 155.859C157.37 158.186 156.827 160.265 155.741 162.095C154.671 163.91 153.189 165.344 151.296 166.4C149.419 167.439 147.279 167.959 144.874 167.959ZM144.827 161.117C145.727 161.117 146.534 160.893 147.247 160.443C147.961 159.993 148.519 159.365 148.923 158.558C149.342 157.752 149.551 156.837 149.551 155.813C149.551 154.82 149.342 153.928 148.923 153.137C148.519 152.346 147.961 151.725 147.247 151.275C146.534 150.826 145.727 150.601 144.827 150.601C143.912 150.601 143.098 150.826 142.384 151.275C141.671 151.725 141.105 152.346 140.686 153.137C140.282 153.928 140.081 154.82 140.081 155.813C140.081 156.837 140.282 157.752 140.686 158.558C141.105 159.365 141.671 159.993 142.384 160.443C143.098 160.893 143.912 161.117 144.827 161.117ZM167.934 167.493H160.302V144.225H166.934L167.19 148.064C167.966 146.699 168.998 145.644 170.285 144.9C171.572 144.14 173.046 143.76 174.706 143.76C175.218 143.76 175.738 143.799 176.265 143.876C176.808 143.954 177.351 144.07 177.894 144.225L176.963 151.089C175.877 150.748 174.861 150.578 173.915 150.578C172.705 150.578 171.65 150.841 170.75 151.368C169.85 151.896 169.152 152.633 168.656 153.579C168.175 154.525 167.934 155.642 167.934 156.929V167.493ZM217.894 167.493H210.262V156.045C210.262 154.308 209.936 152.966 209.285 152.02C208.633 151.058 207.702 150.578 206.492 150.578C205.266 150.578 204.313 151.058 203.63 152.02C202.947 152.982 202.606 154.323 202.606 156.045V167.493H194.974V156.045C194.974 154.308 194.648 152.966 193.997 152.02C193.345 151.058 192.414 150.578 191.205 150.578C189.979 150.578 189.025 151.058 188.342 152.02C187.66 152.982 187.318 154.323 187.318 156.045V167.493H179.686V144.225H185.737L185.993 147.971C186.783 146.591 187.823 145.543 189.11 144.83C190.413 144.116 191.926 143.76 193.648 143.76C195.401 143.76 196.921 144.124 198.209 144.853C199.511 145.567 200.528 146.599 201.257 147.948C202.048 146.583 203.087 145.543 204.374 144.83C205.662 144.116 207.174 143.76 208.912 143.76C211.735 143.76 213.938 144.659 215.521 146.459C217.103 148.258 217.894 150.763 217.894 153.974V167.493ZM15.9354 245.108H7.83778L12.6545 233.497L0.694204 210.206H9.35027L16.2611 224.818L22.311 210.206H30.4088L15.9354 245.108ZM43.1143 233.94C40.679 233.94 38.5071 233.42 36.599 232.381C34.7063 231.326 33.2174 229.891 32.1317 228.076C31.0454 226.246 30.5029 224.167 30.5029 221.84C30.5029 219.513 31.0454 217.443 32.1317 215.628C33.2174 213.797 34.7063 212.362 36.599 211.323C38.5071 210.268 40.679 209.741 43.1143 209.741C45.519 209.741 47.6598 210.268 49.5367 211.323C51.4295 212.362 52.9104 213.797 53.9808 215.628C55.0671 217.443 55.6096 219.513 55.6096 221.84C55.6096 224.167 55.0671 226.246 53.9808 228.076C52.9104 229.891 51.4295 231.326 49.5367 232.381C47.6598 233.42 45.519 233.94 43.1143 233.94ZM43.0679 227.098C43.9678 227.098 44.7743 226.874 45.4879 226.424C46.2015 225.974 46.7599 225.346 47.1631 224.539C47.5822 223.733 47.7912 222.818 47.7912 221.794C47.7912 220.801 47.5822 219.909 47.1631 219.118C46.7599 218.327 46.2015 217.706 45.4879 217.256C44.7743 216.807 43.9678 216.582 43.0679 216.582C42.1527 216.582 41.3382 216.807 40.6246 217.256C39.911 217.706 39.3447 218.327 38.9262 219.118C38.5229 219.909 38.3207 220.801 38.3207 221.794C38.3207 222.818 38.5229 223.733 38.9262 224.539C39.3447 225.346 39.911 225.974 40.6246 226.424C41.3382 226.874 42.1527 227.098 43.0679 227.098ZM81.7648 233.474H75.6686L75.4127 229.751C74.6062 231.117 73.5278 232.156 72.1782 232.869C70.8286 233.583 69.2542 233.94 67.4549 233.94C64.5229 233.94 62.2269 233.032 60.567 231.217C58.907 229.402 58.0773 226.897 58.0773 223.702V210.206H65.7094V221.77C65.7094 223.461 66.0741 224.772 66.803 225.702C67.5325 226.634 68.5406 227.098 69.8279 227.098C71.1775 227.098 72.2326 226.618 72.9926 225.656C73.7527 224.694 74.1327 223.368 74.1327 221.677V210.206H81.7648V233.474ZM93.6101 233.474H85.978V210.206H92.6093L92.8653 214.045C93.6412 212.68 94.6725 211.625 95.9598 210.881C97.2477 210.121 98.7213 209.741 100.381 209.741C100.893 209.741 101.413 209.78 101.94 209.857C102.483 209.935 103.026 210.051 103.569 210.206L102.638 217.07C101.553 216.729 100.537 216.559 99.5901 216.559C98.3798 216.559 97.3253 216.822 96.4254 217.349C95.5254 217.877 94.8277 218.614 94.331 219.56C93.8502 220.506 93.6101 221.623 93.6101 222.911V233.474ZM123.117 233.474H114.926V197.642H123.117V233.474ZM131.146 205.227C130.184 205.227 129.369 204.893 128.702 204.226C128.05 203.544 127.725 202.722 127.725 201.76C127.725 200.814 128.05 200.007 128.702 199.34C129.369 198.658 130.184 198.316 131.146 198.316C132.123 198.316 132.945 198.658 133.612 199.34C134.279 200.007 134.613 200.814 134.613 201.76C134.613 202.722 134.279 203.544 133.612 204.226C132.945 204.893 132.123 205.227 131.146 205.227ZM134.985 233.474H127.353V210.206H134.985V233.474ZM148.785 233.474H141.152V217.024H137.08V210.206H141.152V207.041C141.152 205.273 141.579 203.699 142.432 202.318C143.285 200.938 144.449 199.852 145.922 199.061C147.412 198.27 149.102 197.874 150.995 197.874C152.189 197.874 153.415 198.053 154.671 198.409C155.928 198.75 157.161 199.294 158.371 200.038L155.486 205.948C154.989 205.529 154.462 205.219 153.903 205.017C153.361 204.8 152.817 204.692 152.274 204.692C151.313 204.692 150.491 205.025 149.808 205.692C149.125 206.359 148.785 207.305 148.785 208.531V210.206H155.649V217.024H148.785V233.474ZM180.85 230.938C177.949 232.939 174.792 233.94 171.38 233.94C168.804 233.94 166.485 233.397 164.422 232.311C162.374 231.209 160.753 229.72 159.559 227.843C158.364 225.951 157.767 223.826 157.767 221.468C157.767 219.219 158.302 217.218 159.372 215.464C160.443 213.696 161.901 212.3 163.747 211.276C165.609 210.253 167.711 209.741 170.053 209.741C172.489 209.741 174.629 210.307 176.475 211.44C178.321 212.572 179.756 214.146 180.78 216.163C181.819 218.164 182.339 220.491 182.339 223.143V223.888H165.958C166.237 224.648 166.656 225.322 167.214 225.912C167.788 226.502 168.502 226.974 169.355 227.331C170.208 227.673 171.185 227.843 172.287 227.843C174.567 227.843 176.708 227.106 178.709 225.633L180.85 230.938ZM165.632 220.444H175.312C175.219 219.575 174.955 218.807 174.521 218.14C174.086 217.474 173.512 216.954 172.799 216.582C172.101 216.209 171.317 216.023 170.449 216.023C169.564 216.023 168.781 216.225 168.098 216.628C167.432 217.016 166.881 217.543 166.446 218.211C166.028 218.862 165.756 219.607 165.632 220.444ZM185.574 207.274L182.689 201.108C185.652 198.952 188.902 197.874 192.439 197.874C194.486 197.874 196.255 198.223 197.744 198.921C199.233 199.604 200.381 200.589 201.188 201.876C201.994 203.148 202.398 204.676 202.398 206.46C202.398 207.593 202.227 208.585 201.886 209.438C201.56 210.292 201.095 211.075 200.49 211.788C199.9 212.502 199.218 213.239 198.442 213.999C197.697 214.744 196.96 215.542 196.232 216.395C195.518 217.233 194.928 218.241 194.463 219.42C193.998 220.599 193.765 222.057 193.765 223.795H187.273C187.273 221.592 187.506 219.769 187.971 218.327C188.452 216.868 189.041 215.667 189.74 214.72C190.437 213.759 191.112 212.913 191.764 212.184C192.384 211.501 192.92 210.842 193.369 210.206C193.82 209.555 194.044 208.802 194.044 207.949C194.044 206.941 193.719 206.126 193.067 205.506C192.416 204.885 191.539 204.575 190.437 204.575C189.492 204.575 188.584 204.816 187.715 205.297C186.862 205.777 186.148 206.437 185.574 207.274ZM190.531 233.94C189.492 233.94 188.654 233.629 188.018 233.009C187.397 232.373 187.087 231.535 187.087 230.496C187.087 229.472 187.397 228.642 188.018 228.006C188.654 227.37 189.492 227.052 190.531 227.052C191.555 227.052 192.384 227.37 193.02 228.006C193.656 228.642 193.975 229.472 193.975 230.496C193.975 231.535 193.656 232.373 193.02 233.009C192.384 233.629 191.555 233.94 190.531 233.94Z" fill="white"/>
</svg>
